<svg width="68" height="68" viewBox="0 0 68 68" fill="none" xmlns="http://www.w3.org/2000/svg">
<path d="M42.3333 20.4597C44.1212 20.4619 45.8769 19.9848 47.4178 19.0779C48.9586 18.1711 50.2281 16.8678 51.0942 15.3037C51.9602 13.7396 52.391 11.9719 52.3419 10.1847C52.2927 8.39749 51.7653 6.65616 50.8146 5.14204C49.8638 3.62791 48.5246 2.39636 46.9362 1.57564C45.3478 0.75491 43.5685 0.375022 41.7835 0.475535C39.9984 0.576047 38.273 1.15328 36.7868 2.14713C35.3006 3.14098 34.1081 4.5151 33.3333 6.12638C32.6667 7.45971 33.5333 8.99305 34.8 9.85971C38.4198 12.2267 40.9777 15.9082 41.9333 20.1264C41.9667 20.3264 42.1333 20.4597 42.3333 20.4597ZM55.4667 51.3597C55.9667 52.793 57.2667 53.793 58.8 53.793H62.3333C65.1 53.793 67.3333 51.5597 67.3333 48.793C67.3309 42.7418 65.1337 36.8968 61.1493 32.3423C57.165 27.7879 51.6639 24.8332 45.6667 24.0264C43.8333 23.7597 42.3667 25.293 42 27.093C41.8 28.093 41.5 29.093 41.1333 29.993C40.3667 31.9264 40.9667 34.3264 42.7 35.4264C48.5929 39.188 53.0803 44.7885 55.4667 51.3597ZM35.6667 23.793C35.6667 25.1063 35.408 26.4066 34.9055 27.6199C34.4029 28.8331 33.6663 29.9355 32.7377 30.8641C31.8091 31.7927 30.7067 32.5293 29.4935 33.0318C28.2802 33.5344 26.9799 33.793 25.6667 33.793C24.3534 33.793 23.0531 33.5344 21.8398 33.0318C20.6266 32.5293 19.5242 31.7927 18.5956 30.8641C17.667 29.9355 16.9304 28.8331 16.4279 27.6199C15.9253 26.4066 15.6667 25.1063 15.6667 23.793C15.6667 21.1409 16.7202 18.5973 18.5956 16.722C20.471 14.8466 23.0145 13.793 25.6667 13.793C28.3188 13.793 30.8624 14.8466 32.7377 16.722C34.6131 18.5973 35.6667 21.1409 35.6667 23.793ZM0.666656 62.1264C0.666656 55.496 3.30058 49.1371 7.98899 44.4487C12.6774 39.7603 19.0362 37.1264 25.6667 37.1264C32.2971 37.1264 38.6559 39.7603 43.3443 44.4487C48.0327 49.1371 50.6667 55.496 50.6667 62.1264C50.6667 64.893 48.4333 67.1264 45.6667 67.1264C45.5107 67.1295 45.3586 67.0779 45.2368 66.9804C45.1149 66.883 45.0312 66.7459 45 66.593C44.3333 63.393 43.1333 60.3597 42.0667 58.1264C41.7333 57.3597 40.6667 57.6264 40.6667 58.4597V65.4597C40.6667 65.9017 40.4911 66.3257 40.1785 66.6382C39.8659 66.9508 39.442 67.1264 39 67.1264H12.3333C11.8913 67.1264 11.4674 66.9508 11.1548 66.6382C10.8423 66.3257 10.6667 65.9017 10.6667 65.4597V58.4597C10.6667 57.6264 9.63332 57.3597 9.26666 58.1264C8.19999 60.3597 7.03332 63.393 6.33332 66.593C6.30216 66.7459 6.21837 66.883 6.09656 66.9804C5.97475 67.0779 5.82262 67.1295 5.66666 67.1264C4.34057 67.1264 3.0688 66.5996 2.13112 65.6619C1.19344 64.7242 0.666656 63.4525 0.666656 62.1264Z" fill="#ABABAB"/>
</svg>
